<svg xmlns="http://www.w3.org/2000/svg" xmlns:xlink="http://www.w3.org/1999/xlink" width="512" height="512" viewBox="0 0 512 512">
  <defs>
    <clipPath id="clip-ChatSon_Logo">
      <rect width="512" height="512"/>
    </clipPath>
  </defs>
  <g id="ChatSon_Logo" data-name="ChatSon Logo" clip-path="url(#clip-ChatSon_Logo)">
    <circle id="backGround" cx="230" cy="230" r="230" transform="translate(26 26)" fill="#8ff"/>
    <g id="Group_1" data-name="Group 1" transform="translate(64 501) rotate(-90)">
      <g id="Subtraction_2" data-name="Subtraction 2" transform="translate(177.946 136.5) rotate(180)">
        <path d="M 23.4998836517334 59.50030136108398 C 15.69714736938477 59.50030136108398 7.8993239402771 58.71421051025391 0.3230004906654358 57.16388702392578 C -7.060528755187988 55.65297698974609 -14.32308769226074 53.39853668212891 -21.26285171508789 50.46318054199219 C -28.07694053649902 47.58109283447266 -34.64920425415039 44.01377105712891 -40.79705810546875 39.86029815673828 C -46.88667678833008 35.74621200561523 -52.61299896240234 31.02150535583496 -57.8170280456543 25.81741714477539 C -63.02114486694336 20.61330032348633 -67.745849609375 14.88691711425781 -71.85987854003906 8.797299385070801 C -76.01332092285156 2.649358510971069 -79.58061981201172 -3.922935724258423 -82.46270751953125 -10.73699474334717 C -85.39811706542969 -17.67708206176758 -87.65255737304688 -24.93970108032227 -89.16341400146484 -32.32311248779297 C -90.71373748779297 -39.89961242675781 -91.49982452392578 -47.69755172729492 -91.49982452392578 -55.50028991699219 C -91.49982452392578 -63.30290603637695 -90.71373748779297 -71.10076141357422 -89.16341400146484 -78.67720031738281 C -87.652587890625 -86.06043243408203 -85.39814758300781 -93.32296752929688 -82.46270751953125 -100.2630844116211 C -79.58061981201172 -107.0771102905273 -76.01332092285156 -113.6493453979492 -71.85987854003906 -119.7972259521484 C -67.74588012695312 -125.8867568969727 -63.02117538452148 -131.6131134033203 -57.8170280456543 -136.8172302246094 C -52.61296844482422 -142.0212860107422 -46.88664627075195 -146.7459869384766 -40.79705810546875 -150.8600463867188 C -34.64911651611328 -155.0135498046875 -28.07688140869141 -158.5808410644531 -21.26288223266602 -161.4629058837891 C -14.32285213470459 -164.3983154296875 -7.060323238372803 -166.6527252197266 0.3230004906654358 -168.1635894775391 C 7.8993239402771 -169.7139129638672 15.69714736938477 -170.5 23.4998836517334 -170.5 C 31.30279541015625 -170.5 39.1007080078125 -169.7139129638672 46.67702865600586 -168.1635894775391 C 54.06047058105469 -166.6527252197266 61.32305908203125 -164.3982849121094 68.26309204101562 -161.4629058837891 C 75.07711791992188 -158.580810546875 81.64935302734375 -155.0134887695312 87.79723358154297 -150.8600463867188 C 93.88668060302734 -146.7461395263672 99.61299896240234 -142.0214385986328 104.8171768188477 -136.8172302246094 C 110.0211791992188 -131.6132659912109 114.7458267211914 -125.8869094848633 118.8599090576172 -119.7972259521484 C 123.013298034668 -113.6493453979492 126.5805892944336 -107.0771102905273 129.462646484375 -100.2630844116211 C 132.3979949951172 -93.32317352294922 134.6523895263672 -86.06063842773438 136.1632385253906 -78.67720031738281 C 137.7135620117188 -71.10087585449219 138.4996490478516 -63.30305480957031 138.4996490478516 -55.50028991699219 C 138.4996490478516 -47.69740676879883 137.7135620117188 -39.89949417114258 136.1632385253906 -32.32311248779297 C 134.6523590087891 -24.9394359588623 132.3979644775391 -17.67681884765625 129.462646484375 -10.73699474334717 C 126.5805587768555 -3.922906160354614 123.013298034668 2.649387836456299 118.8599090576172 8.797299385070801 C 114.7458801269531 14.88697624206543 110.0212097167969 20.61335754394531 104.8171768188477 25.81741714477539 C 99.61312103271484 31.02156448364258 93.88679504394531 35.74629974365234 87.79723358154297 39.86029815673828 C 81.64949798583984 44.0136833190918 75.07726287841797 47.58100509643555 68.26309204101562 50.46318054199219 C 61.32326507568359 53.39853668212891 54.06067657470703 55.65297698974609 46.67702865600586 57.16388702392578 C 39.1007080078125 58.71421051025391 31.30279541015625 59.50030136108398 23.4998836517334 59.50030136108398 Z M 22.49997138977051 -121.4996109008789 C -13.89267635345459 -121.4996109008789 -43.50023651123047 -91.89243316650391 -43.50023651123047 -55.50028991699219 C -43.50023651123047 -19.10764122009277 -13.89267635345459 10.49991703033447 22.49997138977051 10.49991703033447 C 58.89261627197266 10.49991703033447 88.50017547607422 -19.10764122009277 88.50017547607422 -55.50028991699219 C 88.50017547607422 -91.89243316650391 58.89261627197266 -121.4996109008789 22.49997138977051 -121.4996109008789 Z" stroke="none"/>
        <path d="M 23.4998836517334 59.00030136108398 C 31.26920700073242 59.00030136108398 39.03341293334961 58.21762466430664 46.5767936706543 56.67403411865234 C 53.9280891418457 55.16974258422852 61.15888214111328 52.9251823425293 68.06829833984375 50.00268173217773 C 74.85276794433594 47.13309478759766 81.39635467529297 43.581298828125 87.51735687255859 39.44600677490234 C 93.58049774169922 35.34980010986328 99.28205871582031 30.64553451538086 104.4636154174805 25.46385765075684 C 109.645149230957 20.28229904174805 114.3493804931641 14.58068180084229 118.4456176757812 8.517416954040527 C 122.5809097290039 2.396240711212158 126.1326446533203 -4.147406101226807 129.0021514892578 -10.93178844451904 C 131.9245910644531 -17.84119987487793 134.1691131591797 -25.07199478149414 135.6733856201172 -32.42334747314453 C 137.2169647216797 -39.96678924560547 137.9996490478516 -47.73099517822266 137.9996490478516 -55.50028991699219 C 137.9996490478516 -63.26946640014648 137.2169647216797 -71.03358459472656 135.6733856201172 -78.57696533203125 C 134.1691741943359 -85.92805480957031 131.9246215820312 -93.15879058837891 129.0021514892578 -100.0682907104492 C 126.1326446533203 -106.8526153564453 122.5809097290039 -113.3962020874023 118.4456176757812 -119.5173492431641 C 114.3493270874023 -125.5806121826172 109.6451187133789 -131.2821960449219 104.4636154174805 -136.4636688232422 C 99.28194427490234 -141.6454010009766 93.58038330078125 -146.3496398925781 87.51735687255859 -150.4457550048828 C 81.39620971679688 -154.5811157226562 74.85261535644531 -158.1328735351562 68.06829833984375 -161.0024108886719 C 61.15867614746094 -163.9249420166016 53.92788314819336 -166.1694946289062 46.5767936706543 -167.6737365722656 C 39.03341293334961 -169.2173156738281 31.26920700073242 -170 23.4998836517334 -170 C 15.73073577880859 -170 7.966618061065674 -169.2173156738281 0.4232358038425446 -167.6737365722656 C -6.927734851837158 -166.1695251464844 -14.15847015380859 -163.9249420166016 -21.06808853149414 -161.0024108886719 C -27.85235214233398 -158.1329345703125 -34.39596939086914 -154.5811767578125 -40.51714706420898 -150.4457550048828 C -46.58035278320312 -146.3494873046875 -52.28194046020508 -141.6452331542969 -57.46347045898438 -136.4636688232422 C -62.64511871337891 -131.2820587158203 -67.34938049316406 -125.5804672241211 -71.44558715820312 -119.5173492431641 C -75.58094024658203 -113.3962020874023 -79.13270568847656 -106.8526153564453 -82.00220489501953 -100.0682907104492 C -84.92479705810547 -93.15858459472656 -87.16934967041016 -85.92784881591797 -88.67356109619141 -78.57696533203125 C -90.21714782714844 -71.03343200683594 -90.99982452392578 -63.26931762695312 -90.99982452392578 -55.50028991699219 C -90.99982452392578 -47.73114013671875 -90.21714782714844 -39.96693420410156 -88.67356109619141 -32.42334747314453 C -87.16932678222656 -25.0722599029541 -84.92476654052734 -17.84146499633789 -82.00220489501953 -10.93178844451904 C -79.13270568847656 -4.147435665130615 -75.58094024658203 2.396211385726929 -71.44558715820312 8.517416954040527 C -67.34934997558594 14.58062362670898 -62.64508819580078 20.28223991394043 -57.46347045898438 25.46388816833496 C -52.28194046020508 30.64544677734375 -46.58038330078125 35.34971237182617 -40.51714706420898 39.44600677490234 C -34.39603042602539 43.58138656616211 -27.85243988037109 47.13315200805664 -21.06808853149414 50.00268173217773 C -14.15870571136475 52.9251823425293 -6.927969932556152 55.16974258422852 0.4232358038425446 56.67403411865234 C 7.966618061065674 58.21762466430664 15.73073577880859 59.00030136108398 23.4998836517334 59.00030136108398 M 22.49997138977051 -121.9996109008789 C 59.16829299926758 -121.9996109008789 89.00017547607422 -92.16814422607422 89.00017547607422 -55.50028991699219 C 89.00017547607422 -18.83196449279785 59.16829299926758 10.99991703033447 22.49997138977051 10.99991703033447 C -14.1683521270752 10.99991703033447 -44.00023651123047 -18.83196449279785 -44.00023651123047 -55.50028991699219 C -44.00023651123047 -92.16814422607422 -14.1683521270752 -121.9996109008789 22.49997138977051 -121.9996109008789 M 23.4998836517334 60.00030136108398 C 15.66353034973145 60.00030136108398 7.831971168518066 59.21080017089844 0.2227652072906494 57.65373992919922 C -7.193117141723633 56.13621139526367 -14.48746967315674 53.87188720703125 -21.4576473236084 50.92368316650391 C -28.30152893066406 48.02897644042969 -34.90238189697266 44.44612503051758 -41.07696914672852 40.27462387084961 C -47.19293975830078 36.1427116394043 -52.94405746459961 31.39756393432617 -58.17058944702148 26.17097663879395 C -63.3972053527832 20.94435882568359 -68.14234924316406 15.19318199157715 -72.27420806884766 9.077211380004883 C -76.44564819335938 2.902593851089478 -80.02849578857422 -3.698318004608154 -82.92320251464844 -10.54222965240479 C -85.87146759033203 -17.51267051696777 -88.13579559326172 -24.80708312988281 -89.65326690673828 -32.22287750244141 C -91.21029663085938 -39.8321418762207 -91.99982452392578 -47.66378784179688 -91.99982452392578 -55.50028991699219 C -91.99982452392578 -63.336669921875 -91.21029663085938 -71.16822814941406 -89.65326690673828 -78.77743530273438 C -88.13579559326172 -86.19313812255859 -85.87143707275391 -93.48749542236328 -82.92320251464844 -100.4578475952148 C -80.02852630615234 -107.3016738891602 -76.4456787109375 -113.9025497436523 -72.27420806884766 -120.0771408081055 C -68.14232635498047 -126.1930847167969 -63.39717483520508 -131.9441986083984 -58.17058944702148 -137.1707916259766 C -52.94400024414062 -142.3973693847656 -47.1928825378418 -147.1425018310547 -41.07696914672852 -151.2743835449219 C -34.90235137939453 -155.4458770751953 -28.30150032043457 -159.0287322998047 -21.4576473236084 -161.9234008789062 C -14.4872932434082 -164.8716430664062 -7.192940711975098 -167.1359710693359 0.2227652072906494 -168.6534423828125 C 7.831971168518066 -170.2104949951172 15.66353034973145 -171 23.4998836517334 -171 C 31.33641242980957 -171 39.16806030273438 -170.2104949951172 46.77726364135742 -168.6534423828125 C 54.19303131103516 -167.1359710693359 61.48747253417969 -164.8716430664062 68.45785522460938 -161.9234008789062 C 75.30165100097656 -159.0287322998047 81.90252685546875 -155.4458770751953 88.0771484375 -151.2743835449219 C 94.19306182861328 -147.1425476074219 99.94414520263672 -142.3973999023438 105.1707382202148 -137.1707916259766 C 110.3972320556641 -131.9442901611328 115.1423263549805 -126.1931686401367 119.2742385864258 -120.0771408081055 C 123.4457092285156 -113.9024963378906 127.0285034179688 -107.301643371582 129.9231414794922 -100.4578475952148 C 132.8713226318359 -93.48760986328125 135.1356201171875 -86.19326019287109 136.6530914306641 -78.77743530273438 C 138.2101440429688 -71.16822814941406 138.9996490478516 -63.336669921875 138.9996490478516 -55.50028991699219 C 138.9996490478516 -47.66378784179688 138.2101440429688 -39.8321418762207 136.6530914306641 -32.22287750244141 C 135.1356201171875 -24.80696487426758 132.8713531494141 -17.51252365112305 129.9231414794922 -10.54222965240479 C 127.0285034179688 -3.698406219482422 123.4457092285156 2.90250563621521 119.2742385864258 9.077211380004883 C 115.1423568725586 15.19327068328857 110.3972320556641 20.9444465637207 105.1707382202148 26.17097663879395 C 99.94423675537109 31.39756393432617 94.193115234375 36.14274215698242 88.0771484375 40.27462387084961 C 81.902587890625 44.44612503051758 75.30167388916016 48.02897644042969 68.45785522460938 50.92368316650391 C 61.48752975463867 53.8719482421875 54.19311904907227 56.1362419128418 46.77726364135742 57.65373992919922 C 39.16806030273438 59.21080017089844 31.33641242980957 60.00030136108398 23.4998836517334 60.00030136108398 Z M 22.49997138977051 -120.9996109008789 C -13.61694049835205 -120.9996109008789 -43.00023651123047 -91.61672973632812 -43.00023651123047 -55.50028991699219 C -43.00023651123047 -19.38334655761719 -13.61694049835205 9.999917030334473 22.49997138977051 9.999917030334473 C 58.616943359375 9.999917030334473 88.00017547607422 -19.38334655761719 88.00017547607422 -55.50028991699219 C 88.00017547607422 -91.61672973632812 58.616943359375 -120.9996109008789 22.49997138977051 -120.9996109008789 Z" stroke="none" fill="#000"/>
      </g>
      <g id="Subtraction_3" data-name="Subtraction 3" transform="translate(359.946 136.5) rotate(180)">
        <path d="M 23.49992179870605 43.50011825561523 C 10.13479614257812 43.50011825561523 -2.830228567123413 40.88261795043945 -15.03507804870605 35.72034454345703 C -20.9011287689209 33.23917007446289 -26.55892753601074 30.16814422607422 -31.85135269165039 26.59261894226074 C -37.09367752075195 23.05091857910156 -42.0233268737793 18.98354339599609 -46.50335311889648 14.50344371795654 C -50.98332977294922 10.02339363098145 -55.05065536499023 5.093693733215332 -58.59232711791992 -0.1487310975790024 C -62.16785430908203 -5.441256046295166 -65.23883056640625 -11.09910583496094 -67.71992492675781 -16.96515655517578 C -72.88212585449219 -29.17010688781738 -75.49958038330078 -42.13520431518555 -75.49958038330078 -55.50030517578125 C -75.49958038330078 -75.5611572265625 -69.53128051757812 -94.8798828125 -58.2398796081543 -111.3679809570312 C -52.79797744750977 -119.3144073486328 -46.23972702026367 -126.4192581176758 -38.7473030090332 -132.4851989746094 C -31.39030838012695 -138.4414672851562 -23.2539005279541 -143.2962951660156 -14.55437850952148 -146.921875 L -14.55437850952148 -113.3597640991211 C -34.37602615356445 -100.6431121826172 -46.19927978515625 -79.03516387939453 -46.19927978515625 -55.50030517578125 C -46.19927978515625 -17.61888122558594 -15.38090324401855 13.19991874694824 22.50002098083496 13.19991874694824 C 58.17734146118164 13.19991874694824 88.16793060302734 -14.52245998382568 90.98191070556641 -49.99988174438477 L 122.3501052856445 -49.99990463256836 C 121.6586227416992 -37.36335372924805 118.6109466552734 -25.16699981689453 113.2887191772461 -13.74265575408936 C 110.6863708496094 -8.15660572052002 107.5375442504883 -2.780456066131592 103.9297180175781 2.236443996429443 C 100.3501205444336 7.214093685150146 96.28404998779297 11.88661861419678 91.84442138671875 16.12421798706055 C 87.39959716796875 20.3666934967041 82.53839874267578 24.21334457397461 77.3958740234375 27.5572681427002 C 72.20134735107422 30.93496894836426 66.66727447509766 33.83359527587891 60.94742202758789 36.1726188659668 C 49.05727005004883 41.03479385375977 36.45809555053711 43.50011825561523 23.49992179870605 43.50011825561523 Z" stroke="none"/>
        <path d="M 23.49992179870605 43.00011825561523 C 36.39289474487305 43.00011825561523 48.92837142944336 40.54731750488281 60.75817108154297 35.70981979370117 C 66.44902038574219 33.38266754150391 71.95504760742188 30.49871826171875 77.12332153320312 27.13809394836426 C 82.23994445800781 23.81099319458008 87.07669830322266 19.98369407653809 91.49919891357422 15.76251888275146 C 95.91651916503906 11.54621887207031 99.96217346191406 6.89716911315918 103.5237731933594 1.94451892375946 C 107.113395690918 -3.047056198120117 110.2462997436523 -8.396005630493164 112.8354949951172 -13.95380592346191 C 118.0566177368164 -25.16111946105957 121.0776214599609 -37.11526107788086 121.8206253051758 -49.49990463256836 L 91.44225311279297 -49.49988174438477 C 88.38644409179688 -13.98443984985352 58.28277969360352 13.69991874694824 22.50002098083496 13.69991874694824 C -15.65660381317139 13.69991874694824 -46.69927978515625 -17.34318161010742 -46.69927978515625 -55.50030517578125 C -46.69927978515625 -79.11489105224609 -34.88100051879883 -100.8040161132812 -15.05437850952148 -113.6324081420898 L -15.05437850952148 -146.1687164306641 C -23.4495792388916 -142.5942840576172 -31.30814743041992 -137.8646545410156 -38.43267822265625 -132.0966033935547 C -45.88750457763672 -126.0611038208008 -52.41280364990234 -118.9919586181641 -57.82732772827148 -111.0854797363281 C -69.06150054931641 -94.68093109130859 -74.99958038330078 -75.45988464355469 -74.99958038330078 -55.50030517578125 C -74.99958038330078 -42.20248031616211 -72.39540100097656 -29.30293083190918 -67.25942993164062 -17.15993118286133 C -64.79090118408203 -11.32360649108887 -61.73547744750977 -5.694406032562256 -58.17802810668945 -0.4286310970783234 C -54.65415191650391 4.787418842315674 -50.60727691650391 9.692343711853027 -46.1497802734375 14.14989376068115 C -41.69227981567383 18.60749435424805 -36.78740310668945 22.6544189453125 -31.5714282989502 26.17829322814941 C -26.30577850341797 29.73576927185059 -20.67660331726074 32.79124450683594 -14.84030342102051 35.25984573364258 C -2.697428464889526 40.39591979980469 10.20209693908691 43.00011825561523 23.49992179870605 43.00011825561523 M 23.49992179870605 44.00011825561523 C 10.06754684448242 44.00011825561523 -2.963028430938721 41.36934280395508 -15.22985363006592 36.18084335327148 C -21.12562942504883 33.68709564208984 -26.81207847595215 30.60054397583008 -32.13125228881836 27.00691795349121 C -37.39995193481445 23.44741821289062 -42.35437774658203 19.35959434509277 -46.85690307617188 14.85699367523193 C -51.35947799682617 10.35436916351318 -55.44722747802734 5.399868965148926 -59.00665283203125 0.1311689019203186 C -62.60025405883789 -5.188106060028076 -65.68675231933594 -10.87460613250732 -68.18042755126953 -16.77038192749023 C -73.36882781982422 -29.03728103637695 -75.99958038330078 -42.06790542602539 -75.99958038330078 -55.50030517578125 C -75.99958038330078 -75.66240692138672 -70.00102996826172 -95.07883453369141 -58.65240478515625 -111.650505065918 C -53.18317794799805 -119.636833190918 -46.59200286865234 -126.7773818969727 -39.06192779541016 -132.8738098144531 C -31.47280311584473 -139.0180053710938 -23.05905342102051 -143.9957885742188 -14.05437850952148 -147.6688842773438 L -14.05437850952148 -113.0858840942383 C -33.86957931518555 -100.4813079833984 -45.69927978515625 -78.95430755615234 -45.69927978515625 -55.50030517578125 C -45.69927978515625 -17.89458084106445 -15.10520362854004 12.69991874694824 22.50002098083496 12.69991874694824 C 58.07182312011719 12.69991874694824 87.94907379150391 -15.06073093414307 90.51842498779297 -50.49988174438477 L 122.8768463134766 -50.49990463256836 C 122.2387466430664 -37.60985565185547 119.1649932861328 -25.17223167419434 113.741943359375 -13.53150653839111 C 111.1263961791992 -7.917130947113037 107.9616470336914 -2.513806104660034 104.3356475830078 2.528368949890137 C 100.7380981445312 7.530993938446045 96.65159606933594 12.22699356079102 92.18964385986328 16.48589324951172 C 87.72249603271484 20.74969482421875 82.83686828613281 24.61566925048828 77.66844940185547 27.97644424438477 C 72.44762420654297 31.37124443054199 66.88552093505859 34.28454208374023 61.13667297363281 36.63541793823242 C 49.18617248535156 41.52227020263672 36.52332305908203 44.00011825561523 23.49992179870605 44.00011825561523 Z" stroke="none" fill="#000"/>
      </g>
    </g>
  </g>
</svg>
