<svg xmlns="http://www.w3.org/2000/svg" xmlns:xlink="http://www.w3.org/1999/xlink" width="512" height="512" viewBox="0 0 512 512">
  <defs>
    <clipPath id="clip-ChatSonLogo">
      <rect width="512" height="512"/>
    </clipPath>
  </defs>
  <g id="ChatSonLogo" clip-path="url(#clip-ChatSonLogo)">
    <circle id="backGround" cx="230" cy="230" r="230" transform="translate(26 26)" fill="#8ff"/>
    <g id="Group_1" data-name="Group 1" transform="translate(64 501) rotate(-90)">
      <g id="Subtraction_2" data-name="Subtraction 2" transform="translate(177.946 136.5) rotate(180)">
        <path d="M 23.49990844726562 74.49969482421875 C 14.67917537689209 74.49969482421875 5.864208221435547 73.61109161376953 -2.700091600418091 71.85859680175781 C -11.0464916229248 70.15069580078125 -19.25639152526855 67.60222625732422 -27.10172462463379 64.28395843505859 C -34.80452346801758 61.02592849731445 -42.23405838012695 56.99336242675781 -49.18389129638672 52.2982292175293 C -56.06782531738281 47.64752960205078 -62.54109191894531 42.30659484863281 -68.42385864257812 36.42379379272461 C -74.30679321289062 30.54092788696289 -79.64772796630859 24.06769561767578 -84.29839324951172 17.18386077880859 C -88.99359130859375 10.23402786254883 -93.02619171142578 2.80452823638916 -96.28422546386719 -4.89830493927002 C -99.60249328613281 -12.74363803863525 -102.150993347168 -20.95357131958008 -103.8589248657227 -29.30003929138184 C -105.611457824707 -37.86454010009766 -106.5000915527344 -46.67957305908203 -106.5000915527344 -55.50030517578125 C -106.5000915527344 -64.32090759277344 -105.611457824707 -73.13587188720703 -103.8589248657227 -81.70030212402344 C -102.150993347168 -90.04673767089844 -99.60249328613281 -98.25663757324219 -96.28422546386719 -106.101936340332 C -93.026123046875 -113.8048706054688 -88.99349212646484 -121.234375 -84.29839324951172 -128.1841125488281 C -79.64765930175781 -135.0680389404297 -74.30669403076172 -141.5413055419922 -68.42385864257812 -147.424072265625 C -62.54109191894531 -153.3069000244141 -56.06782531738281 -158.6478729248047 -49.18389129638672 -163.2985992431641 C -42.23415756225586 -167.9936981201172 -34.80465698242188 -172.0263366699219 -27.10172462463379 -175.2844390869141 C -19.25642395019531 -178.6027069091797 -11.04652500152588 -181.1511993408203 -2.700091600418091 -182.8591461181641 C 5.864341735839844 -184.6116790771484 14.67930889129639 -185.5003051757812 23.49990844726562 -185.5003051757812 C 32.32050704956055 -185.5003051757812 41.13547515869141 -184.6116790771484 49.69990921020508 -182.8591461181641 C 58.04634094238281 -181.1511993408203 66.25624084472656 -178.6027069091797 74.10153961181641 -175.2844390869141 C 81.80447387695312 -172.0263366699219 89.23397827148438 -167.9936981201172 96.18370819091797 -163.2985992431641 C 103.0676422119141 -158.6478729248047 109.5409088134766 -153.3069000244141 115.4236755371094 -147.424072265625 C 121.306510925293 -141.5413055419922 126.6474761962891 -135.0680389404297 131.2982025146484 -128.1841125488281 C 135.9933013916016 -121.234375 140.0259399414062 -113.8048706054688 143.2840423583984 -106.101936340332 C 146.6023101806641 -98.25663757324219 149.1508026123047 -90.04673767089844 150.8587493896484 -81.70030212402344 C 152.6112823486328 -73.13587188720703 153.4999084472656 -64.32090759277344 153.4999084472656 -55.50030517578125 C 153.4999084472656 -46.67957305908203 152.6112823486328 -37.86454010009766 150.8587493896484 -29.30003929138184 C 149.1508026123047 -20.95357131958008 146.6023101806641 -12.74363803863525 143.2840423583984 -4.89830493927002 C 140.0260009765625 2.80452823638916 135.993408203125 10.23402786254883 131.2982025146484 17.18386077880859 C 126.6475448608398 24.06769561767578 121.3066101074219 30.54092788696289 115.4236755371094 36.42379379272461 C 109.5409088134766 42.30659484863281 103.0676422119141 47.64752960205078 96.18370819091797 52.2982292175293 C 89.23387145996094 56.99336242675781 81.80434417724609 61.02592849731445 74.10153961181641 64.28395843505859 C 66.25621032714844 67.60222625732422 58.04630661010742 70.15069580078125 49.69990921020508 71.85859680175781 C 41.1356086730957 73.61109161376953 32.32064056396484 74.49969482421875 23.49990844726562 74.49969482421875 Z M 22.50000762939453 -121.4996032714844 C -13.8926248550415 -121.4996032714844 -43.50019073486328 -91.89244079589844 -43.50019073486328 -55.50030517578125 C -43.50019073486328 -19.1076717376709 -13.8926248550415 10.4998950958252 22.50000762939453 10.4998950958252 C 58.89264297485352 10.4998950958252 88.50020599365234 -19.1076717376709 88.50020599365234 -55.50030517578125 C 88.50020599365234 -91.89244079589844 58.89264297485352 -121.4996032714844 22.50000762939453 -121.4996032714844 Z" stroke="none"/>
        <path d="M 23.49990844726562 73.99969482421875 C 32.28704071044922 73.99969482421875 41.06827545166016 73.11449432373047 49.59967422485352 71.36872863769531 C 57.91374206542969 69.66746520996094 66.09181213378906 67.12886047363281 73.90673828125 63.82345962524414 C 81.57984161376953 60.57802963256836 88.98070526123047 56.56096267700195 95.90380859375 51.88389587402344 C 102.761344909668 47.25102996826172 109.2098388671875 41.93056106567383 115.0701446533203 36.07026290893555 C 120.9305419921875 30.20989418029785 126.2510452270508 23.76139450073242 130.8838806152344 16.90396118164062 C 135.5610046386719 9.980895042419434 139.5780792236328 2.579994916915894 142.8235473632812 -5.093071937561035 C 146.1289367675781 -12.90803813934326 148.6675720214844 -21.08613777160645 150.3688812255859 -29.40027236938477 C 152.1147155761719 -37.9318733215332 152.9999084472656 -46.71317291259766 152.9999084472656 -55.50030517578125 C 152.9999084472656 -64.28730773925781 152.1147155761719 -73.06853485107422 150.3688812255859 -81.60007476806641 C 148.6675720214844 -89.91416931152344 146.1289367675781 -98.09223937988281 142.8235473632812 -105.9071350097656 C 139.5780029296875 -113.5803375244141 135.5609130859375 -120.9812393188477 130.8838806152344 -127.9042053222656 C 126.2509765625 -134.7617340087891 120.9304733276367 -141.2102355957031 115.0701446533203 -147.0705413818359 C 109.2098388671875 -152.9308776855469 102.761344909668 -158.2513732910156 95.90380859375 -162.88427734375 C 88.98084259033203 -167.5613098144531 81.57994079589844 -171.5783996582031 73.90673828125 -174.8239440917969 C 66.09184265136719 -178.1293334960938 57.91377639770508 -180.66796875 49.59967422485352 -182.3692779541016 C 41.06814193725586 -184.1151123046875 32.28690719604492 -185.0003051757812 23.49990844726562 -185.0003051757812 C 14.71290874481201 -185.0003051757812 5.931674957275391 -184.1151123046875 -2.599858283996582 -182.3692779541016 C -10.91395854949951 -180.66796875 -19.09202575683594 -178.1293334960938 -26.90692520141602 -174.8239440917969 C -34.58012390136719 -171.5783996582031 -41.98102569580078 -167.5613098144531 -48.90399169921875 -162.88427734375 C -55.76152420043945 -158.2513732910156 -62.21002578735352 -152.9308776855469 -68.07032775878906 -147.0705413818359 C -73.93065643310547 -141.2102355957031 -79.25115966796875 -134.7617340087891 -83.88405609130859 -127.9042053222656 C -88.56108856201172 -120.9812393188477 -92.57819366455078 -113.5803375244141 -95.82372283935547 -105.9071350097656 C -99.12912750244141 -98.09223937988281 -101.6677551269531 -89.91416931152344 -103.3690567016602 -81.60007476806641 C -105.1148910522461 -73.06853485107422 -106.0000915527344 -64.28730773925781 -106.0000915527344 -55.50030517578125 C -106.0000915527344 -46.71317291259766 -105.1148910522461 -37.9318733215332 -103.3690567016602 -29.40027236938477 C -101.6677551269531 -21.08613777160645 -99.12912750244141 -12.90803813934326 -95.82372283935547 -5.093105316162109 C -92.57825469970703 2.579994916915894 -88.56118774414062 9.980895042419434 -83.88405609130859 16.90396118164062 C -79.25122833251953 23.76139450073242 -73.93072509765625 30.20989418029785 -68.07032775878906 36.07026290893555 C -62.21002578735352 41.93056106567383 -55.76152420043945 47.25102996826172 -48.90399169921875 51.88389587402344 C -41.98089218139648 56.56096267700195 -34.58002471923828 60.57802963256836 -26.90695762634277 63.82345962524414 C -19.09199142456055 67.12886047363281 -10.91392517089844 69.66746520996094 -2.599858283996582 71.36872863769531 C 5.931541919708252 73.11449432373047 14.71277523040771 73.99969482421875 23.49990844726562 73.99969482421875 M 22.50000762939453 -121.9996032714844 C 59.16834259033203 -121.9996032714844 89.00020599365234 -92.16813659667969 89.00020599365234 -55.50030517578125 C 89.00020599365234 -18.83197212219238 59.16834259033203 10.9998950958252 22.50000762939453 10.9998950958252 C -14.16832447052002 10.9998950958252 -44.00019073486328 -18.83197212219238 -44.00019073486328 -55.50030517578125 C -44.00019073486328 -92.16813659667969 -14.16832447052002 -121.9996032714844 22.50000762939453 -121.9996032714844 M 23.49990844726562 74.99969482421875 C 14.64567470550537 74.99969482421875 5.796975135803223 74.10769653320312 -2.8003249168396 72.34842681884766 C -11.17915821075439 70.63389587402344 -19.42085838317871 68.07553100585938 -27.2964916229248 64.74446105957031 C -35.02912521362305 61.47382736206055 -42.48725891113281 57.42569351196289 -49.46379089355469 52.71252822875977 C -56.3740234375 48.04405975341797 -62.87209320068359 42.68269348144531 -68.77742767333984 36.77736282348633 C -74.68282318115234 30.87199401855469 -80.04422760009766 24.37396240234375 -84.71269226074219 17.4637622833252 C -89.42595672607422 10.48719501495361 -93.47412109375 3.029028177261353 -96.74472808837891 -4.703538417816162 C -100.0758590698242 -12.57927227020264 -102.6342239379883 -20.82100486755371 -104.3487548828125 -29.19980430603027 C -106.1080551147461 -37.79723739624023 -107.0000915527344 -46.64600372314453 -107.0000915527344 -55.50030517578125 C -107.0000915527344 -64.35450744628906 -106.1080551147461 -73.20317077636719 -104.3487548828125 -81.800537109375 C -102.6342239379883 -90.17930603027344 -100.0758590698242 -98.42100524902344 -96.74472808837891 -106.2967071533203 C -93.47409057617188 -114.0292358398438 -89.42595672607422 -121.4874038696289 -84.71269226074219 -128.4640045166016 C -80.044189453125 -135.3742370605469 -74.68279266357422 -141.8722991943359 -68.77742767333984 -147.7776336669922 C -62.87209320068359 -153.6829986572266 -56.3740234375 -159.0444030761719 -49.46379089355469 -163.7129058837891 C -42.48719024658203 -168.4261779785156 -35.02902603149414 -172.4743041992188 -27.2964916229248 -175.7449340820312 C -19.42079162597656 -179.0760650634766 -11.17909145355225 -181.6344451904297 -2.8003249168396 -183.3489685058594 C 5.797041893005371 -185.1082763671875 14.64570808410645 -186.0003051757812 23.49990844726562 -186.0003051757812 C 32.35410690307617 -186.0003051757812 41.20277404785156 -185.1082763671875 49.80014038085938 -183.3489685058594 C 58.17890930175781 -181.6344451904297 66.42060852050781 -179.0760650634766 74.29631042480469 -175.7449340820312 C 82.02883911132812 -172.4743041992188 89.48700714111328 -168.4261779785156 96.46360778808594 -163.7129058837891 C 103.3738403320312 -159.0444030761719 109.8719100952148 -153.6829986572266 115.7772445678711 -147.7776336669922 C 121.6826095581055 -141.8722991943359 127.0440063476562 -135.3742370605469 131.7125091552734 -128.4640045166016 C 136.42578125 -121.4874038696289 140.4739074707031 -114.0292358398438 143.7445373535156 -106.2967071533203 C 147.0756683349609 -98.42100524902344 149.6340484619141 -90.17930603027344 151.3485717773438 -81.800537109375 C 153.1078796386719 -73.20317077636719 153.9999084472656 -64.35450744628906 153.9999084472656 -55.50030517578125 C 153.9999084472656 -46.64600372314453 153.1078796386719 -37.79723739624023 151.3485717773438 -29.19980430603027 C 149.6340484619141 -20.82100486755371 147.0756683349609 -12.57927227020264 143.7445373535156 -4.703538417816162 C 140.4739379882812 3.029028177261353 136.42578125 10.48719501495361 131.7125091552734 17.4637622833252 C 127.0440444946289 24.37396240234375 121.6826400756836 30.87199401855469 115.7772445678711 36.77736282348633 C 109.8719100952148 42.68269348144531 103.3738403320312 48.04405975341797 96.46360778808594 52.71252822875977 C 89.48707580566406 57.42569351196289 82.02893829345703 61.47382736206055 74.29631042480469 64.74446105957031 C 66.42067718505859 68.07553100585938 58.17897415161133 70.63389587402344 49.80014038085938 72.34842681884766 C 41.20284271240234 74.10769653320312 32.35414123535156 74.99969482421875 23.49990844726562 74.99969482421875 Z M 22.50000762939453 -120.9996032714844 C -13.61692523956299 -120.9996032714844 -43.00019073486328 -91.61673736572266 -43.00019073486328 -55.50030517578125 C -43.00019073486328 -19.38337135314941 -13.61692523956299 9.999895095825195 22.50000762939453 9.999895095825195 C 58.616943359375 9.999895095825195 88.00020599365234 -19.38337135314941 88.00020599365234 -55.50030517578125 C 88.00020599365234 -91.61673736572266 58.616943359375 -120.9996032714844 22.50000762939453 -120.9996032714844 Z" stroke="none" fill="#000"/>
      </g>
      <g id="Subtraction_3" data-name="Subtraction 3" transform="translate(355 131.686) rotate(180)">
        <path d="M 18.55258750915527 49.87213516235352 C 11.0853099822998 49.87213516235352 3.622864961624146 49.11985778808594 -3.627468347549438 47.6362190246582 C -10.69316291809082 46.19038391113281 -17.64327430725098 44.03293991088867 -24.2848014831543 41.22383117675781 C -30.80560684204102 38.46577453613281 -37.09510803222656 35.05191421508789 -42.97858047485352 31.07710838317871 C -48.80610656738281 27.14007949829102 -54.28610610961914 22.6186351776123 -59.26638412475586 17.63835716247559 C -64.24658203125 12.65813541412354 -68.76799774169922 7.178107738494873 -72.70502471923828 1.350552201271057 C -76.67966461181641 -4.532697677612305 -80.09343719482422 -10.82219791412354 -82.85157775878906 -17.34325408935547 C -85.66065979003906 -23.98467063903809 -87.81807708740234 -30.93475341796875 -89.263916015625 -38.0004768371582 C -90.74752044677734 -45.25078201293945 -91.49977111816406 -52.71316909790039 -91.49977111816406 -60.1803092956543 C -91.49977111816406 -71.98858642578125 -89.64002227783203 -83.60758972167969 -85.97216033935547 -94.71456146240234 C -82.42469024658203 -105.4569778442383 -77.24277496337891 -115.5648345947266 -70.57032775878906 -124.7573089599609 C -63.97863388061523 -133.8386383056641 -56.07044219970703 -141.8397827148438 -47.06541442871094 -148.5384521484375 C -38.14695358276367 -155.1727294921875 -28.33551979064941 -160.3908538818359 -17.89338493347168 -164.0544738769531 L -17.89338493347168 -99.24617004394531 C -28.88370704650879 -89.25688934326172 -35.18327331542969 -75.03096771240234 -35.18327331542969 -60.1803092956543 C -35.18327331542969 -31.07822608947754 -11.50705146789551 -7.401975631713867 17.5949764251709 -7.401975631713867 C 44.92419815063477 -7.401975631713867 67.42171478271484 -27.7863883972168 70.11203765869141 -54.89411544799805 L 128.4793853759766 -54.89408874511719 C 127.8110733032227 -40.73987197875977 124.4862823486328 -27.06917190551758 118.5944213867188 -14.25500297546387 C 115.7193374633789 -8.002031326293945 112.2302017211914 -1.982281088829041 108.2239227294922 3.636996746063232 C 104.2500610351562 9.210829734802246 99.72922515869141 14.4444408416748 94.78703308105469 19.19246864318848 C 89.84019470214844 23.94488525390625 84.42528533935547 28.25474739074707 78.69275665283203 32.00227355957031 C 72.90277862548828 35.78730392456055 66.7314453125 39.03585815429688 60.35017013549805 41.65769195556641 C 47.08347702026367 47.1083869934082 33.02072525024414 49.87213516235352 18.55258750915527 49.87213516235352 Z" stroke="none"/>
        <path d="M 18.55258750915527 49.37213516235352 C 32.95522689819336 49.37213516235352 46.95403289794922 46.62102508544922 60.16017150878906 41.1951904296875 C 66.51230621337891 38.58533096313477 72.65553283691406 35.35158157348633 78.41914367675781 31.5837459564209 C 84.12575531005859 27.85319137573242 89.51614379882812 23.56282997131348 94.44061279296875 18.83188629150391 C 99.36050415039062 14.10533046722412 103.8608932495117 8.895358085632324 107.816780090332 3.346718788146973 C 111.8048629760742 -2.247031211853027 115.2781448364258 -8.239364624023438 118.1401443481445 -14.46386432647705 C 123.9326095581055 -27.06185150146484 127.2324066162109 -40.49014663696289 127.9540100097656 -54.39408874511719 L 70.56299591064453 -54.39411544799805 C 67.64292907714844 -27.25540542602539 45.03069305419922 -6.901975631713867 17.5949764251709 -6.901975631713867 C -11.78274631500244 -6.901975631713867 -35.68327331542969 -30.80253028869629 -35.68327331542969 -60.1803092956543 C -35.68327331542969 -75.09808349609375 -29.38702392578125 -89.39070892333984 -18.39338493347168 -99.46675109863281 L -18.39338493347168 -163.3467559814453 C -28.53927803039551 -159.7131195068359 -38.07885360717773 -154.6002044677734 -46.7669677734375 -148.1372528076172 C -55.73133087158203 -141.4688568115234 -63.60377502441406 -133.5038909912109 -70.16568756103516 -124.4636154174805 C -76.80777740478516 -115.3129196166992 -81.96611022949219 -105.2511444091797 -85.49738311767578 -94.55775451660156 C -89.14849853515625 -83.50147247314453 -90.99977111816406 -71.93522644042969 -90.99977111816406 -60.1803092956543 C -90.99977111816406 -52.74675369262695 -90.25093841552734 -45.318115234375 -88.77407836914062 -38.1006965637207 C -87.33485412597656 -31.06733703613281 -85.18730163574219 -24.1490592956543 -82.39108276367188 -17.53803062438965 C -79.64552307128906 -11.04672527313232 -76.24727630615234 -4.785864353179932 -72.29071807861328 1.070635557174683 C -68.37149810791016 6.871857643127441 -63.87052536010742 12.32707977294922 -58.9128303527832 17.2848014831543 C -53.955078125 22.24258041381836 -48.49982833862305 26.74357986450195 -42.69869232177734 30.66280174255371 C -36.84196853637695 34.61952590942383 -30.58110809326172 38.01782989501953 -24.09002304077148 40.76332855224609 C -17.47891235351562 43.5595817565918 -10.56057929992676 45.7071647644043 -3.527245998382568 47.14638519287109 C 3.690170526504517 48.62327575683594 11.11892032623291 49.37213516235352 18.55258750915527 49.37213516235352 M 18.55258750915527 50.37213516235352 C 11.05178165435791 50.37213516235352 3.555615186691284 49.61647033691406 -3.727718353271484 48.12607955932617 C -10.82582950592041 46.67360687255859 -17.80774688720703 44.50627517700195 -24.47957992553711 41.68432998657227 C -31.03010749816895 38.91369247436523 -37.34824752807617 35.48430252075195 -43.25849533081055 31.49141311645508 C -49.11241149902344 27.53655242919922 -54.61719131469727 22.99466323852539 -59.61994171142578 17.99191284179688 C -64.62263488769531 12.98919105529785 -69.16449737548828 7.48438549041748 -73.11933135986328 1.630441069602966 C -77.11207580566406 -4.279614448547363 -80.54141235351562 -10.59778118133545 -83.31208038330078 -17.14847564697266 C -86.13399505615234 -23.82025337219238 -88.30130004882812 -30.80214309692383 -89.75377655029297 -37.90022659301758 C -91.24411010742188 -45.18344879150391 -91.99977111816406 -52.67955780029297 -91.99977111816406 -60.1803092956543 C -91.99977111816406 -72.04197692871094 -90.13152313232422 -83.71372222900391 -86.44693756103516 -94.871337890625 C -82.88327026367188 -105.6628341674805 -77.67774963378906 -115.8167495727539 -70.97496795654297 -125.0510330200195 C -64.35346984863281 -134.1734161376953 -56.40952301025391 -142.210693359375 -47.36383056640625 -148.9396209716797 C -38.21555328369141 -155.7448577880859 -28.13205146789551 -161.0667266845703 -17.39338493347168 -164.7573852539062 L -17.39338493347168 -99.02430725097656 C -28.38146781921387 -89.12225341796875 -34.68327331542969 -74.96441650390625 -34.68327331542969 -60.1803092956543 C -34.68327331542969 -31.35394859313965 -11.23135757446289 -7.901975631713867 17.5949764251709 -7.901975631713867 C 44.81650543212891 -7.901975631713867 67.19844818115234 -28.31916999816895 69.65731048583984 -55.39411544799805 L 129.0023345947266 -55.39408493041992 C 128.3891143798828 -40.98741912841797 125.0398941040039 -27.07630920410156 119.048698425293 -14.04611396789551 C 116.160530090332 -7.764697551727295 112.6555328369141 -1.717586636543274 108.6310348510742 3.927246570587158 C 104.6391677856445 9.526357650756836 100.0979232788086 14.78360748291016 95.1334228515625 19.55302429199219 C 90.16422271728516 24.32694053649902 84.72483825683594 28.65627479553223 78.96633911132812 32.42077255249023 C 73.15008544921875 36.22299575805664 66.95064544677734 39.48635864257812 60.54019927978516 42.12016296386719 C 47.21289443969727 47.59577560424805 33.08619689941406 50.37213516235352 18.55258750915527 50.37213516235352 Z" stroke="none" fill="#000"/>
      </g>
    </g>
  </g>
</svg>
