<svg width="100%" height="100%" id="svg" viewBox="0 0 1440 700" xmlns="http://www.w3.org/2000/svg" class="transition duration-300 ease-in-out delay-150"><defs><linearGradient id="gradient" x1="0%" y1="50%" x2="100%" y2="50%"><stop offset="5%" stop-color="#353535"></stop><stop offset="95%" stop-color="#32ded4"></stop></linearGradient></defs><path d="M 0,700 C 0,700 0,140 0,140 C 158.07142857142856,145.82142857142856 316.1428571428571,151.64285714285714 417,167 C 517.8571428571429,182.35714285714286 561.5000000000001,207.24999999999997 656,191 C 750.4999999999999,174.75000000000003 895.8571428571429,117.35714285714286 1035,102 C 1174.142857142857,86.64285714285714 1307.0714285714284,113.32142857142857 1440,140 C 1440,140 1440,700 1440,700 Z" stroke="none" stroke-width="0" fill="url(#gradient)" fill-opacity="0.265" class="transition-all duration-300 ease-in-out delay-150 path-0"></path><defs><linearGradient id="gradient" x1="0%" y1="50%" x2="100%" y2="50%"><stop offset="5%" stop-color="#353535"></stop><stop offset="95%" stop-color="#32ded4"></stop></linearGradient></defs><path d="M 0,700 C 0,700 0,280 0,280 C 89.60714285714286,296.3571428571429 179.21428571428572,312.7142857142857 294,306 C 408.7857142857143,299.2857142857143 548.7499999999999,269.5 687,268 C 825.2500000000001,266.5 961.7857142857144,293.2857142857143 1087,300 C 1212.2142857142856,306.7142857142857 1326.1071428571427,293.3571428571429 1440,280 C 1440,280 1440,700 1440,700 Z" stroke="none" stroke-width="0" fill="url(#gradient)" fill-opacity="0.4" class="transition-all duration-300 ease-in-out delay-150 path-1"></path><defs><linearGradient id="gradient" x1="0%" y1="50%" x2="100%" y2="50%"><stop offset="5%" stop-color="#353535"></stop><stop offset="95%" stop-color="#32ded4"></stop></linearGradient></defs><path d="M 0,700 C 0,700 0,420 0,420 C 92.71428571428572,403.2857142857143 185.42857142857144,386.57142857142856 298,396 C 410.57142857142856,405.42857142857144 543.0000000000001,440.99999999999994 692,457 C 840.9999999999999,473.00000000000006 1006.5714285714287,469.42857142857144 1134,460 C 1261.4285714285713,450.57142857142856 1350.7142857142858,435.2857142857143 1440,420 C 1440,420 1440,700 1440,700 Z" stroke="none" stroke-width="0" fill="url(#gradient)" fill-opacity="0.53" class="transition-all duration-300 ease-in-out delay-150 path-2"></path><defs><linearGradient id="gradient" x1="0%" y1="50%" x2="100%" y2="50%"><stop offset="5%" stop-color="#353535"></stop><stop offset="95%" stop-color="#32ded4"></stop></linearGradient></defs><path d="M 0,700 C 0,700 0,560 0,560 C 91.03571428571428,559.5714285714286 182.07142857142856,559.1428571428571 301,564 C 419.92857142857144,568.8571428571429 566.75,579 701,590 C 835.25,601 956.9285714285713,612.8571428571428 1078,608 C 1199.0714285714287,603.1428571428572 1319.5357142857142,581.5714285714287 1440,560 C 1440,560 1440,700 1440,700 Z" stroke="none" stroke-width="0" fill="url(#gradient)" fill-opacity="1" class="transition-all duration-300 ease-in-out delay-150 path-3"></path></svg>